<mxfile host="app.diagrams.net" modified="2024-03-20T16:53:48.445Z" agent="Mozilla/5.0 (Windows NT 10.0; Win64; x64) AppleWebKit/537.36 (KHTML, like Gecko) Chrome/122.0.0.0 Safari/537.36" etag="cwziDBqwNtKHb-R6aV6c" version="24.0.7" type="device">
  <diagram name="Страница — 1" id="SAemB1V-0kpJUeYCE8sl">
    <mxGraphModel dx="2670" dy="807" grid="1" gridSize="10" guides="1" tooltips="1" connect="1" arrows="1" fold="1" page="1" pageScale="1" pageWidth="827" pageHeight="1169" math="0" shadow="0">
      <root>
        <mxCell id="0" />
        <mxCell id="1" parent="0" />
        <mxCell id="zfHqiwIgWRQ2IQCjei-U-75" style="edgeStyle=orthogonalEdgeStyle;rounded=0;orthogonalLoop=1;jettySize=auto;html=1;exitX=0.5;exitY=0.5;exitDx=0;exitDy=0;exitPerimeter=0;entryX=1;entryY=1;entryDx=0;entryDy=0;" edge="1" parent="1" source="zfHqiwIgWRQ2IQCjei-U-1" target="zfHqiwIgWRQ2IQCjei-U-4">
          <mxGeometry relative="1" as="geometry" />
        </mxCell>
        <mxCell id="zfHqiwIgWRQ2IQCjei-U-1" value="Випускник&amp;nbsp;" style="shape=umlActor;verticalLabelPosition=bottom;verticalAlign=top;html=1;outlineConnect=0;" vertex="1" parent="1">
          <mxGeometry x="80" y="260" width="60" height="90" as="geometry" />
        </mxCell>
        <mxCell id="zfHqiwIgWRQ2IQCjei-U-73" style="edgeStyle=orthogonalEdgeStyle;rounded=0;orthogonalLoop=1;jettySize=auto;html=1;entryX=0.25;entryY=1;entryDx=0;entryDy=0;" edge="1" parent="1" source="zfHqiwIgWRQ2IQCjei-U-2" target="zfHqiwIgWRQ2IQCjei-U-6">
          <mxGeometry relative="1" as="geometry" />
        </mxCell>
        <mxCell id="zfHqiwIgWRQ2IQCjei-U-2" value="Вчитель" style="shape=umlActor;verticalLabelPosition=bottom;verticalAlign=top;html=1;outlineConnect=0;" vertex="1" parent="1">
          <mxGeometry x="330" y="250" width="40" height="100" as="geometry" />
        </mxCell>
        <mxCell id="zfHqiwIgWRQ2IQCjei-U-72" style="edgeStyle=orthogonalEdgeStyle;rounded=0;orthogonalLoop=1;jettySize=auto;html=1;" edge="1" parent="1" source="zfHqiwIgWRQ2IQCjei-U-3" target="zfHqiwIgWRQ2IQCjei-U-8">
          <mxGeometry relative="1" as="geometry" />
        </mxCell>
        <mxCell id="zfHqiwIgWRQ2IQCjei-U-3" value="Адміністратор&amp;nbsp;" style="shape=umlActor;verticalLabelPosition=bottom;verticalAlign=top;html=1;outlineConnect=0;" vertex="1" parent="1">
          <mxGeometry x="590" y="250" width="50" height="80" as="geometry" />
        </mxCell>
        <mxCell id="zfHqiwIgWRQ2IQCjei-U-54" value="" style="edgeStyle=orthogonalEdgeStyle;rounded=0;orthogonalLoop=1;jettySize=auto;html=1;" edge="1" parent="1" source="zfHqiwIgWRQ2IQCjei-U-4" target="zfHqiwIgWRQ2IQCjei-U-36">
          <mxGeometry relative="1" as="geometry" />
        </mxCell>
        <mxCell id="zfHqiwIgWRQ2IQCjei-U-55" value="" style="edgeStyle=orthogonalEdgeStyle;rounded=0;orthogonalLoop=1;jettySize=auto;html=1;" edge="1" parent="1" source="zfHqiwIgWRQ2IQCjei-U-4" target="zfHqiwIgWRQ2IQCjei-U-32">
          <mxGeometry relative="1" as="geometry" />
        </mxCell>
        <mxCell id="zfHqiwIgWRQ2IQCjei-U-56" value="" style="edgeStyle=orthogonalEdgeStyle;rounded=0;orthogonalLoop=1;jettySize=auto;html=1;" edge="1" parent="1" source="zfHqiwIgWRQ2IQCjei-U-4" target="zfHqiwIgWRQ2IQCjei-U-34">
          <mxGeometry relative="1" as="geometry" />
        </mxCell>
        <mxCell id="zfHqiwIgWRQ2IQCjei-U-4" value="&lt;span style=&quot;font-weight: 700; color: rgb(31, 31, 31); font-family: &amp;quot;Google Sans&amp;quot;, &amp;quot;Helvetica Neue&amp;quot;, sans-serif; font-size: 16px; text-align: left; background-color: rgb(255, 255, 255);&quot;&gt;Підготовка до ЗНО&lt;/span&gt;" style="rounded=0;whiteSpace=wrap;html=1;" vertex="1" parent="1">
          <mxGeometry x="-200" y="175" width="120" height="60" as="geometry" />
        </mxCell>
        <mxCell id="zfHqiwIgWRQ2IQCjei-U-47" value="" style="edgeStyle=orthogonalEdgeStyle;rounded=0;orthogonalLoop=1;jettySize=auto;html=1;" edge="1" parent="1" source="zfHqiwIgWRQ2IQCjei-U-5">
          <mxGeometry relative="1" as="geometry">
            <mxPoint x="200" y="450" as="targetPoint" />
            <Array as="points">
              <mxPoint x="260" y="450" />
              <mxPoint x="260" y="450" />
            </Array>
          </mxGeometry>
        </mxCell>
        <mxCell id="zfHqiwIgWRQ2IQCjei-U-83" style="edgeStyle=orthogonalEdgeStyle;rounded=0;orthogonalLoop=1;jettySize=auto;html=1;" edge="1" parent="1" source="zfHqiwIgWRQ2IQCjei-U-5" target="zfHqiwIgWRQ2IQCjei-U-44">
          <mxGeometry relative="1" as="geometry" />
        </mxCell>
        <mxCell id="zfHqiwIgWRQ2IQCjei-U-5" value="&lt;span style=&quot;font-weight: 700; color: rgb(31, 31, 31); font-family: &amp;quot;Google Sans&amp;quot;, &amp;quot;Helvetica Neue&amp;quot;, sans-serif; font-size: 16px; text-align: left; background-color: rgb(255, 255, 255);&quot;&gt;Створення контенту&lt;/span&gt;" style="rounded=0;whiteSpace=wrap;html=1;" vertex="1" parent="1">
          <mxGeometry x="290" y="420" width="110" height="60" as="geometry" />
        </mxCell>
        <mxCell id="zfHqiwIgWRQ2IQCjei-U-65" value="" style="edgeStyle=orthogonalEdgeStyle;rounded=0;orthogonalLoop=1;jettySize=auto;html=1;" edge="1" parent="1" source="zfHqiwIgWRQ2IQCjei-U-6" target="zfHqiwIgWRQ2IQCjei-U-64">
          <mxGeometry relative="1" as="geometry" />
        </mxCell>
        <mxCell id="zfHqiwIgWRQ2IQCjei-U-67" value="" style="edgeStyle=orthogonalEdgeStyle;rounded=0;orthogonalLoop=1;jettySize=auto;html=1;" edge="1" parent="1" source="zfHqiwIgWRQ2IQCjei-U-6" target="zfHqiwIgWRQ2IQCjei-U-66">
          <mxGeometry relative="1" as="geometry" />
        </mxCell>
        <mxCell id="zfHqiwIgWRQ2IQCjei-U-6" value="&lt;br&gt;&lt;strong style=&quot;font-weight: 700; color: rgb(31, 31, 31); font-family: &amp;quot;Google Sans&amp;quot;, &amp;quot;Helvetica Neue&amp;quot;, sans-serif; font-size: 16px; font-style: normal; font-variant-ligatures: normal; font-variant-caps: normal; letter-spacing: normal; orphans: 2; text-align: left; text-indent: 0px; text-transform: none; widows: 2; word-spacing: 0px; -webkit-text-stroke-width: 0px; white-space: normal; background-color: rgb(255, 255, 255); text-decoration-thickness: initial; text-decoration-style: initial; text-decoration-color: initial;&quot;&gt;Аналітика&lt;/strong&gt;&lt;span style=&quot;color: rgb(31, 31, 31); font-family: &amp;quot;Google Sans&amp;quot;, &amp;quot;Helvetica Neue&amp;quot;, sans-serif; font-size: 16px; font-style: normal; font-variant-ligatures: normal; font-variant-caps: normal; font-weight: 400; letter-spacing: normal; orphans: 2; text-align: left; text-indent: 0px; text-transform: none; widows: 2; word-spacing: 0px; -webkit-text-stroke-width: 0px; white-space: normal; background-color: rgb(255, 255, 255); text-decoration-thickness: initial; text-decoration-style: initial; text-decoration-color: initial; display: inline !important; float: none;&quot;&gt;&lt;span&gt;&amp;nbsp;&lt;/span&gt;&lt;/span&gt;" style="rounded=0;whiteSpace=wrap;html=1;" vertex="1" parent="1">
          <mxGeometry x="380" y="172.5" width="120" height="60" as="geometry" />
        </mxCell>
        <mxCell id="zfHqiwIgWRQ2IQCjei-U-59" value="" style="edgeStyle=orthogonalEdgeStyle;rounded=0;orthogonalLoop=1;jettySize=auto;html=1;" edge="1" parent="1" source="zfHqiwIgWRQ2IQCjei-U-7" target="zfHqiwIgWRQ2IQCjei-U-58">
          <mxGeometry relative="1" as="geometry" />
        </mxCell>
        <mxCell id="zfHqiwIgWRQ2IQCjei-U-61" value="" style="edgeStyle=orthogonalEdgeStyle;rounded=0;orthogonalLoop=1;jettySize=auto;html=1;" edge="1" parent="1" source="zfHqiwIgWRQ2IQCjei-U-7" target="zfHqiwIgWRQ2IQCjei-U-60">
          <mxGeometry relative="1" as="geometry" />
        </mxCell>
        <mxCell id="zfHqiwIgWRQ2IQCjei-U-63" value="" style="edgeStyle=orthogonalEdgeStyle;rounded=0;orthogonalLoop=1;jettySize=auto;html=1;" edge="1" parent="1" source="zfHqiwIgWRQ2IQCjei-U-7" target="zfHqiwIgWRQ2IQCjei-U-62">
          <mxGeometry relative="1" as="geometry" />
        </mxCell>
        <mxCell id="zfHqiwIgWRQ2IQCjei-U-7" value="&#xa;&lt;strong style=&quot;font-weight: 700; color: rgb(31, 31, 31); font-family: &amp;quot;Google Sans&amp;quot;, &amp;quot;Helvetica Neue&amp;quot;, sans-serif; font-size: 16px; font-style: normal; font-variant-ligatures: normal; font-variant-caps: normal; letter-spacing: normal; orphans: 2; text-align: left; text-indent: 0px; text-transform: none; widows: 2; word-spacing: 0px; -webkit-text-stroke-width: 0px; white-space: normal; background-color: rgb(255, 255, 255); text-decoration-thickness: initial; text-decoration-style: initial; text-decoration-color: initial;&quot;&gt;Управління платформою&lt;/strong&gt;&lt;span style=&quot;color: rgb(31, 31, 31); font-family: &amp;quot;Google Sans&amp;quot;, &amp;quot;Helvetica Neue&amp;quot;, sans-serif; font-size: 16px; font-style: normal; font-variant-ligatures: normal; font-variant-caps: normal; font-weight: 400; letter-spacing: normal; orphans: 2; text-align: left; text-indent: 0px; text-transform: none; widows: 2; word-spacing: 0px; -webkit-text-stroke-width: 0px; white-space: normal; background-color: rgb(255, 255, 255); text-decoration-thickness: initial; text-decoration-style: initial; text-decoration-color: initial; display: inline !important; float: none;&quot;&gt;&lt;span&gt;&amp;nbsp;&lt;/span&gt;&lt;/span&gt;&#xa;&#xa;" style="rounded=0;whiteSpace=wrap;html=1;" vertex="1" parent="1">
          <mxGeometry x="566" y="425" width="120" height="60" as="geometry" />
        </mxCell>
        <mxCell id="zfHqiwIgWRQ2IQCjei-U-8" value="&lt;br&gt;&lt;strong style=&quot;font-weight: 700; color: rgb(31, 31, 31); font-family: &amp;quot;Google Sans&amp;quot;, &amp;quot;Helvetica Neue&amp;quot;, sans-serif; font-size: 16px; font-style: normal; font-variant-ligatures: normal; font-variant-caps: normal; letter-spacing: normal; orphans: 2; text-align: left; text-indent: 0px; text-transform: none; widows: 2; word-spacing: 0px; -webkit-text-stroke-width: 0px; white-space: normal; background-color: rgb(255, 255, 255); text-decoration-thickness: initial; text-decoration-style: initial; text-decoration-color: initial;&quot;&gt;Формування звітів&lt;/strong&gt;" style="ellipse;whiteSpace=wrap;html=1;" vertex="1" parent="1">
          <mxGeometry x="726" y="252.5" width="110" height="75" as="geometry" />
        </mxCell>
        <mxCell id="zfHqiwIgWRQ2IQCjei-U-9" value="&lt;br&gt;&lt;strong style=&quot;font-weight: 700; color: rgb(31, 31, 31); font-family: &amp;quot;Google Sans&amp;quot;, &amp;quot;Helvetica Neue&amp;quot;, sans-serif; font-size: 16px; font-style: normal; font-variant-ligatures: normal; font-variant-caps: normal; letter-spacing: normal; orphans: 2; text-align: left; text-indent: 0px; text-transform: none; widows: 2; word-spacing: 0px; -webkit-text-stroke-width: 0px; white-space: normal; background-color: rgb(255, 255, 255); text-decoration-thickness: initial; text-decoration-style: initial; text-decoration-color: initial;&quot;&gt;Збір статистики&lt;/strong&gt;" style="ellipse;whiteSpace=wrap;html=1;" vertex="1" parent="1">
          <mxGeometry x="190" y="130" width="120" height="80" as="geometry" />
        </mxCell>
        <mxCell id="zfHqiwIgWRQ2IQCjei-U-15" value="" style="endArrow=classic;html=1;rounded=0;" edge="1" parent="1">
          <mxGeometry width="50" height="50" relative="1" as="geometry">
            <mxPoint x="339.5" y="340" as="sourcePoint" />
            <mxPoint x="340" y="410" as="targetPoint" />
          </mxGeometry>
        </mxCell>
        <mxCell id="zfHqiwIgWRQ2IQCjei-U-16" value="" style="endArrow=classic;html=1;rounded=0;entryX=0.443;entryY=-0.05;entryDx=0;entryDy=0;entryPerimeter=0;" edge="1" parent="1" source="zfHqiwIgWRQ2IQCjei-U-3" target="zfHqiwIgWRQ2IQCjei-U-7">
          <mxGeometry width="50" height="50" relative="1" as="geometry">
            <mxPoint x="589" y="360" as="sourcePoint" />
            <mxPoint x="636" y="340" as="targetPoint" />
          </mxGeometry>
        </mxCell>
        <mxCell id="zfHqiwIgWRQ2IQCjei-U-32" value="&lt;ul style=&quot;margin: 4px 0px; padding-inline-start: 1.125rem; color: rgb(31, 31, 31); font-family: &amp;quot;Google Sans&amp;quot;, &amp;quot;Helvetica Neue&amp;quot;, sans-serif; text-align: left; background-color: rgb(255, 255, 255);&quot; data-sourcepos=&quot;15:9-17:30&quot;&gt;&lt;li style=&quot;margin-bottom: 0px;&quot; data-sourcepos=&quot;15:9-15:41&quot;&gt;&lt;font style=&quot;vertical-align: inherit;&quot;&gt;&lt;font style=&quot;vertical-align: inherit;&quot;&gt;&lt;font style=&quot;vertical-align: inherit;&quot;&gt;&lt;font style=&quot;vertical-align: inherit; font-size: 12px;&quot;&gt;Доступ до навчальних матеріалів&lt;/font&gt;&lt;/font&gt;&lt;/font&gt;&lt;/font&gt;&lt;/li&gt;&lt;/ul&gt;" style="ellipse;whiteSpace=wrap;html=1;rounded=0;" vertex="1" parent="1">
          <mxGeometry x="-200" y="30" width="120" height="90" as="geometry" />
        </mxCell>
        <mxCell id="zfHqiwIgWRQ2IQCjei-U-34" value="&lt;ul style=&quot;margin: 4px 0px; padding-inline-start: 1.125rem; color: rgb(31, 31, 31); font-family: &amp;quot;Google Sans&amp;quot;, &amp;quot;Helvetica Neue&amp;quot;, sans-serif; text-align: left; background-color: rgb(255, 255, 255);&quot; data-sourcepos=&quot;15:9-17:30&quot;&gt;&lt;li style=&quot;margin-bottom: 0px;&quot; data-sourcepos=&quot;16:9-16:28&quot;&gt;&lt;font style=&quot;vertical-align: inherit;&quot;&gt;&lt;font style=&quot;vertical-align: inherit; font-size: 12px;&quot;&gt;&lt;font style=&quot;vertical-align: inherit;&quot;&gt;&lt;font style=&quot;vertical-align: inherit;&quot;&gt;Проходження тестів&lt;/font&gt;&lt;/font&gt;&lt;/font&gt;&lt;/font&gt;&lt;/li&gt;&lt;/ul&gt;" style="ellipse;whiteSpace=wrap;html=1;rounded=0;" vertex="1" parent="1">
          <mxGeometry x="-10" y="170" width="100" height="70" as="geometry" />
        </mxCell>
        <mxCell id="zfHqiwIgWRQ2IQCjei-U-57" value="" style="edgeStyle=orthogonalEdgeStyle;rounded=0;orthogonalLoop=1;jettySize=auto;html=1;" edge="1" parent="1" source="zfHqiwIgWRQ2IQCjei-U-36" target="zfHqiwIgWRQ2IQCjei-U-40">
          <mxGeometry relative="1" as="geometry" />
        </mxCell>
        <mxCell id="zfHqiwIgWRQ2IQCjei-U-36" value="&lt;span style=&quot;font-weight: 700; color: rgb(31, 31, 31); font-family: &amp;quot;Google Sans&amp;quot;, &amp;quot;Helvetica Neue&amp;quot;, sans-serif; text-align: left; background-color: rgb(255, 255, 255);&quot;&gt;&lt;font style=&quot;vertical-align: inherit;&quot;&gt;&lt;font style=&quot;vertical-align: inherit; font-size: 12px;&quot;&gt;Спілкування&lt;/font&gt;&lt;/font&gt;&lt;/span&gt;" style="ellipse;whiteSpace=wrap;html=1;rounded=0;" vertex="1" parent="1">
          <mxGeometry x="-195" y="302.5" width="110" height="70" as="geometry" />
        </mxCell>
        <mxCell id="zfHqiwIgWRQ2IQCjei-U-38" value="&lt;font style=&quot;font-size: 12px;&quot;&gt;&lt;br&gt;&lt;/font&gt;&lt;ul style=&quot;margin: 4px 0px; padding-inline-start: 1.125rem; color: rgb(31, 31, 31); font-family: &amp;quot;Google Sans&amp;quot;, &amp;quot;Helvetica Neue&amp;quot;, sans-serif; font-style: normal; font-variant-ligatures: normal; font-variant-caps: normal; font-weight: 400; letter-spacing: normal; orphans: 2; text-align: left; text-indent: 0px; text-transform: none; widows: 2; word-spacing: 0px; -webkit-text-stroke-width: 0px; white-space: normal; background-color: rgb(255, 255, 255); text-decoration-thickness: initial; text-decoration-style: initial; text-decoration-color: initial;&quot; data-sourcepos=&quot;15:9-17:30&quot;&gt;&lt;li style=&quot;margin-bottom: 0px;&quot; data-sourcepos=&quot;17:9-17:30&quot;&gt;&lt;font style=&quot;vertical-align: inherit;&quot;&gt;&lt;font style=&quot;vertical-align: inherit;&quot;&gt;&lt;font style=&quot;vertical-align: inherit;&quot;&gt;&lt;font style=&quot;vertical-align: inherit;&quot;&gt;&lt;font style=&quot;vertical-align: inherit;&quot;&gt;&lt;font style=&quot;vertical-align: inherit;&quot; size=&quot;3&quot;&gt;&lt;font style=&quot;vertical-align: inherit;&quot;&gt;&lt;font style=&quot;vertical-align: inherit;&quot;&gt;&lt;font style=&quot;vertical-align: inherit;&quot;&gt;&lt;font style=&quot;vertical-align: inherit;&quot;&gt;Перегляд зразків ЗНО&lt;/font&gt;&lt;/font&gt;&lt;/font&gt;&lt;/font&gt;&lt;/font&gt;&lt;/font&gt;&lt;/font&gt;&lt;/font&gt;&lt;/font&gt;&lt;/font&gt;&lt;/li&gt;&lt;/ul&gt;&lt;div&gt;&lt;br&gt;&lt;/div&gt;" style="ellipse;whiteSpace=wrap;html=1;rounded=0;" vertex="1" parent="1">
          <mxGeometry x="-440" y="170" width="120" height="65" as="geometry" />
        </mxCell>
        <mxCell id="zfHqiwIgWRQ2IQCjei-U-40" value="&lt;font style=&quot;font-size: 12px;&quot;&gt;&lt;br&gt;&lt;span style=&quot;color: rgb(31, 31, 31); font-family: &amp;quot;Google Sans&amp;quot;, &amp;quot;Helvetica Neue&amp;quot;, sans-serif; font-style: normal; font-variant-ligatures: normal; font-variant-caps: normal; font-weight: 400; letter-spacing: normal; orphans: 2; text-align: left; text-indent: 0px; text-transform: none; widows: 2; word-spacing: 0px; -webkit-text-stroke-width: 0px; white-space: normal; background-color: rgb(255, 255, 255); text-decoration-thickness: initial; text-decoration-style: initial; text-decoration-color: initial; float: none; display: inline !important;&quot;&gt;&lt;font style=&quot;vertical-align: inherit;&quot;&gt;&lt;font style=&quot;vertical-align: inherit;&quot;&gt;Спілкування з іншими випускниками&lt;/font&gt;&lt;/font&gt;&lt;/span&gt;&lt;br&gt;&lt;/font&gt;" style="ellipse;whiteSpace=wrap;html=1;rounded=0;" vertex="1" parent="1">
          <mxGeometry x="-430" y="307.5" width="100" height="65" as="geometry" />
        </mxCell>
        <mxCell id="zfHqiwIgWRQ2IQCjei-U-42" value="&lt;br&gt;&lt;span style=&quot;color: rgb(31, 31, 31); font-family: &amp;quot;Google Sans&amp;quot;, &amp;quot;Helvetica Neue&amp;quot;, sans-serif; font-size: 16px; font-style: normal; font-variant-ligatures: normal; font-variant-caps: normal; font-weight: 400; letter-spacing: normal; orphans: 2; text-align: left; text-indent: 0px; text-transform: none; widows: 2; word-spacing: 0px; -webkit-text-stroke-width: 0px; white-space: normal; background-color: rgb(255, 255, 255); text-decoration-thickness: initial; text-decoration-style: initial; text-decoration-color: initial; display: inline !important; float: none;&quot;&gt;&lt;font style=&quot;vertical-align: inherit;&quot;&gt;&lt;font style=&quot;vertical-align: inherit;&quot;&gt;Спілкування з вчителями&lt;/font&gt;&lt;/font&gt;&lt;/span&gt;&lt;div&gt;&lt;br/&gt;&lt;/div&gt;" style="ellipse;whiteSpace=wrap;html=1;rounded=0;" vertex="1" parent="1">
          <mxGeometry x="-195" y="460" width="110" height="70" as="geometry" />
        </mxCell>
        <mxCell id="zfHqiwIgWRQ2IQCjei-U-44" value="&lt;span style=&quot;color: rgb(31, 31, 31); font-family: &amp;quot;Google Sans&amp;quot;, &amp;quot;Helvetica Neue&amp;quot;, sans-serif; font-size: 16px; text-align: left; background-color: rgb(255, 255, 255);&quot;&gt;&lt;font style=&quot;vertical-align: inherit;&quot;&gt;&lt;font style=&quot;vertical-align: inherit;&quot;&gt;Додавання навчальних матеріалів&lt;/font&gt;&lt;/font&gt;&lt;/span&gt;" style="ellipse;whiteSpace=wrap;html=1;rounded=0;" vertex="1" parent="1">
          <mxGeometry x="285" y="560" width="110" height="100" as="geometry" />
        </mxCell>
        <mxCell id="zfHqiwIgWRQ2IQCjei-U-46" value="&lt;span style=&quot;color: rgb(31, 31, 31); font-family: &amp;quot;Google Sans&amp;quot;, &amp;quot;Helvetica Neue&amp;quot;, sans-serif; font-size: 16px; text-align: left; background-color: rgb(255, 255, 255);&quot;&gt;&lt;font style=&quot;vertical-align: inherit;&quot;&gt;&lt;font style=&quot;vertical-align: inherit;&quot;&gt;Створення тестів&lt;/font&gt;&lt;/font&gt;&lt;/span&gt;" style="ellipse;whiteSpace=wrap;html=1;rounded=0;" vertex="1" parent="1">
          <mxGeometry x="120" y="410" width="80" height="80" as="geometry" />
        </mxCell>
        <mxCell id="zfHqiwIgWRQ2IQCjei-U-49" value="" style="endArrow=block;dashed=1;endFill=0;endSize=12;html=1;rounded=0;exitX=0.5;exitY=1;exitDx=0;exitDy=0;entryX=0.5;entryY=0;entryDx=0;entryDy=0;" edge="1" parent="1" source="zfHqiwIgWRQ2IQCjei-U-36" target="zfHqiwIgWRQ2IQCjei-U-42">
          <mxGeometry width="160" relative="1" as="geometry">
            <mxPoint y="460" as="sourcePoint" />
            <mxPoint x="-140" y="460" as="targetPoint" />
          </mxGeometry>
        </mxCell>
        <mxCell id="zfHqiwIgWRQ2IQCjei-U-52" value="" style="endArrow=diamondThin;endFill=1;endSize=24;html=1;rounded=0;exitX=0;exitY=0.5;exitDx=0;exitDy=0;" edge="1" parent="1" source="zfHqiwIgWRQ2IQCjei-U-4" target="zfHqiwIgWRQ2IQCjei-U-38">
          <mxGeometry width="160" relative="1" as="geometry">
            <mxPoint x="-220" y="200" as="sourcePoint" />
            <mxPoint x="-310" y="200" as="targetPoint" />
          </mxGeometry>
        </mxCell>
        <mxCell id="zfHqiwIgWRQ2IQCjei-U-58" value="&lt;span style=&quot;color: rgb(31, 31, 31); font-family: &amp;quot;Google Sans&amp;quot;, &amp;quot;Helvetica Neue&amp;quot;, sans-serif; text-align: left; background-color: rgb(255, 255, 255);&quot;&gt;&lt;font style=&quot;vertical-align: inherit;&quot;&gt;&lt;font style=&quot;vertical-align: inherit;&quot;&gt;&lt;font style=&quot;vertical-align: inherit;&quot;&gt;&lt;font style=&quot;vertical-align: inherit; font-size: 12px;&quot;&gt;Додавання користувачів&lt;/font&gt;&lt;/font&gt;&lt;/font&gt;&lt;/font&gt;&lt;/span&gt;" style="ellipse;whiteSpace=wrap;html=1;rounded=0;" vertex="1" parent="1">
          <mxGeometry x="726" y="415" width="110" height="80" as="geometry" />
        </mxCell>
        <mxCell id="zfHqiwIgWRQ2IQCjei-U-60" value="&lt;span style=&quot;color: rgb(31, 31, 31); font-family: &amp;quot;Google Sans&amp;quot;, &amp;quot;Helvetica Neue&amp;quot;, sans-serif; text-align: left; background-color: rgb(255, 255, 255);&quot;&gt;&lt;font style=&quot;vertical-align: inherit;&quot;&gt;&lt;font style=&quot;vertical-align: inherit;&quot;&gt;&lt;font style=&quot;vertical-align: inherit;&quot;&gt;&lt;font style=&quot;vertical-align: inherit; font-size: 12px;&quot;&gt;Налаштування доступу&lt;/font&gt;&lt;/font&gt;&lt;/font&gt;&lt;/font&gt;&lt;/span&gt;" style="ellipse;whiteSpace=wrap;html=1;rounded=0;" vertex="1" parent="1">
          <mxGeometry x="571" y="525" width="110" height="55" as="geometry" />
        </mxCell>
        <mxCell id="zfHqiwIgWRQ2IQCjei-U-62" value="&lt;span style=&quot;color: rgb(31, 31, 31); font-family: &amp;quot;Google Sans&amp;quot;, &amp;quot;Helvetica Neue&amp;quot;, sans-serif; text-align: left; background-color: rgb(255, 255, 255);&quot;&gt;&lt;font style=&quot;vertical-align: inherit;&quot;&gt;&lt;font style=&quot;vertical-align: inherit; font-size: 12px;&quot;&gt;Моніторинг безпеки&lt;/font&gt;&lt;/font&gt;&lt;/span&gt;" style="ellipse;whiteSpace=wrap;html=1;rounded=0;" vertex="1" parent="1">
          <mxGeometry x="426" y="420" width="90" height="70" as="geometry" />
        </mxCell>
        <mxCell id="zfHqiwIgWRQ2IQCjei-U-64" value="&lt;span style=&quot;color: rgb(31, 31, 31); font-family: &amp;quot;Google Sans&amp;quot;, &amp;quot;Helvetica Neue&amp;quot;, sans-serif; text-align: left; background-color: rgb(255, 255, 255);&quot;&gt;&lt;font style=&quot;font-size: 12px;&quot;&gt;Надання рекомендацій&lt;/font&gt;&lt;/span&gt;" style="ellipse;whiteSpace=wrap;html=1;rounded=0;" vertex="1" parent="1">
          <mxGeometry x="395" y="30" width="90" height="60" as="geometry" />
        </mxCell>
        <mxCell id="zfHqiwIgWRQ2IQCjei-U-66" value="&lt;span style=&quot;color: rgb(31, 31, 31); font-family: &amp;quot;Google Sans&amp;quot;, &amp;quot;Helvetica Neue&amp;quot;, sans-serif; text-align: left; background-color: rgb(255, 255, 255);&quot;&gt;&lt;font style=&quot;font-size: 12px;&quot;&gt;Перегляд результатів тестів учнів&lt;/font&gt;&lt;/span&gt;" style="ellipse;whiteSpace=wrap;html=1;rounded=0;" vertex="1" parent="1">
          <mxGeometry x="550" y="120" width="90" height="60" as="geometry" />
        </mxCell>
        <mxCell id="zfHqiwIgWRQ2IQCjei-U-74" style="edgeStyle=orthogonalEdgeStyle;rounded=0;orthogonalLoop=1;jettySize=auto;html=1;exitX=0.25;exitY=0.1;exitDx=0;exitDy=0;exitPerimeter=0;entryX=0.908;entryY=0.858;entryDx=0;entryDy=0;entryPerimeter=0;" edge="1" parent="1" source="zfHqiwIgWRQ2IQCjei-U-2" target="zfHqiwIgWRQ2IQCjei-U-9">
          <mxGeometry relative="1" as="geometry" />
        </mxCell>
        <mxCell id="zfHqiwIgWRQ2IQCjei-U-78" value="include relationship" style="text;whiteSpace=wrap;html=1;" vertex="1" parent="1">
          <mxGeometry x="-310" y="170" width="140" height="40" as="geometry" />
        </mxCell>
        <mxCell id="zfHqiwIgWRQ2IQCjei-U-79" value="&lt;b style=&quot;font-weight:normal;&quot; id=&quot;docs-internal-guid-05b7e802-7fff-65c0-499b-6326a0242d26&quot;&gt;&lt;span style=&quot;font-size:13pt;font-family:Arial,sans-serif;color:#000000;background-color:transparent;font-weight:400;font-style:normal;font-variant:normal;text-decoration:none;vertical-align:baseline;white-space:pre;white-space:pre-wrap;&quot;&gt;unidirectional association&lt;/span&gt;&lt;/b&gt;" style="text;whiteSpace=wrap;html=1;" vertex="1" parent="1">
          <mxGeometry x="414" y="252.5" width="180" height="25" as="geometry" />
        </mxCell>
        <mxCell id="zfHqiwIgWRQ2IQCjei-U-84" value="Extends" style="endArrow=block;endSize=16;endFill=0;html=1;rounded=0;exitX=0.5;exitY=0.5;exitDx=0;exitDy=0;exitPerimeter=0;" edge="1" parent="1" source="zfHqiwIgWRQ2IQCjei-U-2" target="zfHqiwIgWRQ2IQCjei-U-1">
          <mxGeometry width="160" relative="1" as="geometry">
            <mxPoint x="330" y="300" as="sourcePoint" />
            <mxPoint x="360" y="400" as="targetPoint" />
          </mxGeometry>
        </mxCell>
        <mxCell id="zfHqiwIgWRQ2IQCjei-U-85" value="&lt;b style=&quot;font-weight:normal;&quot; id=&quot;docs-internal-guid-a6030371-7fff-70cf-afdb-c016ce9fd178&quot;&gt;&lt;span style=&quot;font-size:13pt;font-family:Arial,sans-serif;color:#000000;background-color:transparent;font-weight:400;font-style:normal;font-variant:normal;text-decoration:none;vertical-align:baseline;white-space:pre;white-space:pre-wrap;&quot;&gt;extend relationship&lt;/span&gt;&lt;/b&gt;" style="text;whiteSpace=wrap;html=1;" vertex="1" parent="1">
          <mxGeometry x="-140" y="400" width="170" height="40" as="geometry" />
        </mxCell>
        <mxCell id="zfHqiwIgWRQ2IQCjei-U-86" value="&lt;b style=&quot;font-weight:normal;&quot; id=&quot;docs-internal-guid-c411cdb5-7fff-d28a-c51a-130a36441571&quot;&gt;&lt;span style=&quot;font-size:13pt;font-family:Arial,sans-serif;color:#000000;background-color:transparent;font-weight:400;font-style:normal;font-variant:normal;text-decoration:none;vertical-align:baseline;white-space:pre;white-space:pre-wrap;&quot;&gt;generalization&lt;/span&gt;&lt;/b&gt;" style="text;whiteSpace=wrap;html=1;" vertex="1" parent="1">
          <mxGeometry x="190" y="310" width="140" height="40" as="geometry" />
        </mxCell>
      </root>
    </mxGraphModel>
  </diagram>
</mxfile>
